<?xml version="1.0" encoding="utf-8"?>
<!-- Generator: Adobe Illustrator 27.8.1, SVG Export Plug-In . SVG Version: 6.00 Build 0)  -->
<svg version="1.1" id="Ebene_1" xmlns="http://www.w3.org/2000/svg" xmlns:xlink="http://www.w3.org/1999/xlink" x="0px" y="0px"
	 viewBox="0 0 1500 1500" style="enable-background:new 0 0 1500 1500;" xml:space="preserve">
<style type="text/css">
	.st0{fill:#FFFFFF;}
	.st1{fill:#FF6D43;}
</style>
<g>
	<g>
		<path class="st0" d="M726.13,487.39v-47.75c0,0-190.99,0-238.74,0c-26.37,0-47.75,21.38-47.75,47.75c0,34.08,0,71.62,0,71.62
			h47.75v-23.87v-47.75H726.13z"/>
		<path class="st0" d="M487.39,1012.61V821.62h238.74v-47.75c0,0-190.99,0-238.74,0c-26.37,0-47.75,21.38-47.75,47.75
			c0,59.85,0,158.53,0,190.99c0,26.37,21.38,47.75,47.75,47.75c34.08,0,238.74,0,238.74,0v-47.75H487.39z"/>
		<path class="st0" d="M487.39,497.39"/>
		<path class="st0" d="M678.38,1060.36c0-95.49,0-95.49,0-95.49h47.75v95.49H678.38z"/>
		<path class="st1" d="M630.63,630.63h-95.5v-95.5c95.5,0,95.5,0,95.5,0V630.63z"/>
		<path class="st1" d="M630.63,964.87h-95.5v-95.5c95.5,0,95.5,0,95.5,0V964.87z"/>
		<path class="st1" d="M964.87,630.63h-95.5v-95.5c95.5,0,95.5,0,95.5,0V630.63z"/>
		<path class="st0" d="M964.87,726.13h-95.5v-47.75c95.5,0,95.5,0,95.5,0V726.13z"/>
		<path class="st0" d="M487.39,559.01v47.75c-26.37,0-47.75-21.38-47.75-47.75c0-47.75,0-71.62,0-71.62h47.75V559.01z"/>
		<path class="st0" d="M678.38,606.76v-47.75c26.37,0,47.75,21.38,47.75,47.75c0,47.75,0,71.62,0,71.62h-47.75V606.76z"/>
		<path class="st0" d="M678.38,678.38H439.64v47.75c0,0,190.99,0,238.74,0c26.37,0,47.75-21.38,47.75-47.75c0-34.08,0-71.62,0-71.62
			h-47.75V678.38z"/>
		<path class="st0" d="M821.62,821.62"/>
		<path class="st0" d="M821.62,893.24h-47.75c0,0,0-37.54,0-71.62c0-26.37,21.38-47.75,47.75-47.75c47.75,0,238.74,0,238.74,0v47.75
			H821.62V893.24z"/>
		<path class="st1" d="M964.87,964.87h-95.5v-95.5c95.5,0,95.5,0,95.5,0V964.87z"/>
		<path class="st0" d="M821.62,821.62h-47.75c0,0,0,23.87,0,71.62c0,26.37,21.38,47.75,47.75,47.75V821.62z"/>
		<path class="st0" d="M1012.61,893.24c26.37,0,47.75,21.38,47.75,47.75c0,47.75,0,71.62,0,71.62h-47.75V893.24z"/>
		<path class="st0" d="M773.87,1012.61v47.75c0,0,190.99,0,238.74,0c26.37,0,47.75-21.38,47.75-47.75c0-34.08,0-71.62,0-71.62
			h-47.75v71.62H773.87z"/>
		<path class="st0" d="M1060.36,439.64v47.75H773.87c0-47.75,0-47.75,0-47.75H1060.36z"/>
		<path class="st0" d="M726.13,869.37h-47.75v-95.5c47.75,0,47.75,0,47.75,0V869.37z"/>
	</g>
</g>
</svg>
