<svg version="1.1" id="Logo" xmlns="http://www.w3.org/2000/svg" x="0" y="0" viewBox="0 0 1003.9 345.3" style="enable-background:new 0 0 1003.9 345.3" xml:space="preserve"><style>.st0{fill:hsl(205 100% 51%)}</style><path class="st0" d="M900.2 144.4C847.8 127.5 833 113 833 97.5c0-21.8 25.8-34.7 63.4-34.7 14.5 0 25 1.3 32.3 2.9l-.2 43.1 49.4.9 3.5-86.6c-23.3-5.6-59.2-12.3-89.2-12.3-69.4 0-124.2 32.9-124.2 92.4 0 56.6 38.1 77.5 105.5 98.4 52 16.2 57.5 28.6 57.5 44.6 0 18.3-25.6 32-58.3 32-33.5 0-70.7-11.4-93.5-20.8-6.2 13.3-19.5 35.6-28.2 48.3 33.8 18.6 74.1 28.7 119.4 28.7 69.1 0 127.8-32.7 127.8-97.6-.2-50.4-30.5-70.8-98-92.4M217.3 13.2H83v39.4h33.7l-84 237.1H5.9V329h112.7v-39.4H92.1l15.3-43.2h122.1l15.3 43.2H220V329h120.5v-39.4h-25.1L217.3 13.2zm-92.6 184 43.7-123.4 43.8 123.4h-87.5z"/><path class="st0" d="M676.1 67.1c-16.6-7.1-34.9-11-54.2-11-4.9 0-9.8.3-14.6.7-16.8 23-26.8 51.4-26.8 82.1 0 57.7 35.1 107.2 85.1 128.3C653 275.9 638 281 621.9 281c-44.4 0-80.4-38.4-80.4-85.7 0-20.4 6.7-39.1 17.9-53.9 0-21.7 7.7-61.2 19.4-78.5-56.2 18.1-96.2 71.4-96.2 132.4 0 24.3 6.2 47 17.1 66.9-13.2 13.9-31 21.8-48 21.8-23 0-39.6-18-39.6-45V115.2h71.8V65.9h-71.8V12.6h-64.5v53.3h-47.3v49.3h47.3v130.2c0 66.9 46.6 88.8 91.9 88.8 37.9 0 68.8-17.9 85.9-38.5 25 24 59 38.8 96.5 38.8 75.9 0 139.3-62 139.3-139.2.1-57.7-35.1-107.1-85.1-128.2m22.4 154.4c-34-10-59-43.1-59-82.6 0-9.1 1.4-17.9 3.9-26.2 34 10 59 43.1 59 82.6-.1 9.1-1.4 17.9-3.9 26.2"/></svg>