<svg xmlns="http://www.w3.org/2000/svg" viewBox="0 0 581.1 581.1" xml:space="preserve"><path d="M290.6 7.1c-10 0-29.5 1.5-29.5 1.5-34.9 47.1-55.5 105.4-55.5 168.5 0 116.6 70.3 216.7 170.9 260.2-25.2 14.8-54.5 23.3-85.9 23.3-93.9 0-170.1-76.1-170.1-170.1 0-35.2 10.7-67.8 29-95-4.2-60.7 12-121.2 42.8-171C84.2 64.6 7.1 168.6 7.1 290.5 7.1 447.1 134 574 290.6 574S574 447.1 574 290.5C574 134 447.1 7.1 290.6 7.1zm161.7 336.2c-76.3-16.8-133.4-84.7-133.4-166.1 0-18.4 3-36.1 8.4-52.7 76.3 16.8 133.4 84.7 133.4 166.1-.1 18.4-3 36.1-8.4 52.7z" fill="hsl(205 100% 51%)"/></svg>