<?xml version="1.0" encoding="utf-8"?>
<!-- Generator: Adobe Illustrator 27.9.0, SVG Export Plug-In . SVG Version: 6.00 Build 0)  -->
<svg version="1.1" id="Ebene_1" xmlns="http://www.w3.org/2000/svg" xmlns:xlink="http://www.w3.org/1999/xlink" x="0px" y="0px"
	 viewBox="0 0 1500 1500" style="enable-background:new 0 0 1500 1500;" xml:space="preserve">
<style type="text/css">
	.st0{fill:#FF6D43;}
</style>
<g>
	<path d="M439.64,439.64"/>
	<path d="M439.64,672.41H284.46c0,0,0-122,0-232.77c0-85.7,69.48-155.18,155.18-155.18c155.18,0,775.9,0,775.9,0v155.18h-775.9
		V672.41z"/>
	<path class="st0" d="M905.18,905.18H594.82V594.82c310.36,0,310.36,0,310.36,0V905.18z"/>
	<path d="M439.64,284.46H284.46c0,0,0,232.78,0,387.96c0,85.7,69.48,155.18,155.18,155.18V284.46z"/>
	<path d="M1060.36,672.41c85.7,0,155.18,69.48,155.18,155.18c0,155.18,0,232.77,0,232.77h-155.18V672.41z"/>
	<path d="M284.46,1060.36v155.18c0,0,620.72,0,775.9,0c85.7,0,155.18-69.48,155.18-155.18c0-110.77,0-232.77,0-232.77h-155.18
		v232.77H284.46z"/>
</g>
</svg>
