<?xml version="1.0" encoding="utf-8"?>
<!-- Generator: Adobe Illustrator 27.8.1, SVG Export Plug-In . SVG Version: 6.00 Build 0)  -->
<svg version="1.1" id="Ebene_1" xmlns="http://www.w3.org/2000/svg" xmlns:xlink="http://www.w3.org/1999/xlink" x="0px" y="0px"
	 viewBox="0 0 1500 1500" style="enable-background:new 0 0 1500 1500;" xml:space="preserve">
<style type="text/css">
	.eviden-color-orange{fill:#FF6D43;}
	.eviden-color-primary{fill:#000;}

	@media (prefers-color-scheme: dark) {
		.eviden-color-primary{fill:#fff;}
	}
</style>
<g>
	<g>
		<path class="eviden-color-primary" d="M714.19,356.08v-71.62c0,0-286.49,0-358.11,0c-39.56,0-71.62,32.07-71.62,71.62c0,51.13,0,107.43,0,107.43h71.62V427.7
			v-71.62H714.19z"/>
		<path class="eviden-color-primary" d="M356.08,1143.92V857.43h358.11v-71.62c0,0-286.49,0-358.11,0c-39.56,0-71.62,32.07-71.62,71.62c0,89.77,0,237.79,0,286.49
			c0,39.56,32.07,71.62,71.62,71.62c51.13,0,358.11,0,358.11,0v-71.62H356.08z"/>
		<path class="eviden-color-primary" d="M356.08,371.08"/>
		<path class="eviden-color-primary" d="M642.57,1215.54c0-143.24,0-143.24,0-143.24h71.62v143.24H642.57z"/>
		<path class="eviden-color-orange" d="M570.94,570.94H427.7V427.7c143.24,0,143.24,0,143.24,0V570.94z"/>
		<path class="eviden-color-orange" d="M570.94,1072.3H427.7V929.06c143.24,0,143.24,0,143.24,0V1072.3z"/>
		<path class="eviden-color-orange" d="M1072.3,570.94H929.06V427.7c143.24,0,143.24,0,143.24,0V570.94z"/>
		<path class="eviden-color-primary" d="M1072.3,714.19H929.06v-71.62c143.24,0,143.24,0,143.24,0V714.19z"/>
		<path class="eviden-color-primary" d="M356.08,463.51v71.62c-39.56,0-71.62-32.07-71.62-71.62c0-71.62,0-107.43,0-107.43h71.62V463.51z"/>
		<path class="eviden-color-primary" d="M642.57,535.13v-71.62c39.56,0,71.62,32.07,71.62,71.62c0,71.62,0,107.43,0,107.43h-71.62V535.13z"/>
		<path class="eviden-color-primary" d="M642.57,642.57H284.46v71.62c0,0,286.49,0,358.11,0c39.56,0,71.62-32.07,71.62-71.62c0-51.13,0-107.43,0-107.43h-71.62
			V642.57z"/>
		<path class="eviden-color-primary" d="M857.43,857.43"/>
		<path class="eviden-color-primary" d="M857.43,964.87h-71.62c0,0,0-56.31,0-107.43c0-39.56,32.07-71.62,71.62-71.62c71.62,0,358.11,0,358.11,0v71.62H857.43
			V964.87z"/>
		<path class="eviden-color-orange" d="M1072.3,1072.3H929.06V929.05c143.24,0,143.24,0,143.24,0V1072.3z"/>
		<path class="eviden-color-primary" d="M857.43,785.81h-71.62c0,0,0,107.43,0,179.06c0,39.56,32.07,71.62,71.62,71.62V785.81z"/>
		<path class="eviden-color-primary" d="M1143.92,964.87c39.56,0,71.62,32.07,71.62,71.62c0,71.62,0,107.43,0,107.43h-71.62V964.87z"/>
		<path class="eviden-color-primary" d="M785.81,1143.92v71.62c0,0,286.49,0,358.11,0c39.56,0,71.62-32.07,71.62-71.62c0-51.13,0-107.43,0-107.43h-71.62v107.43
			H785.81z"/>
		<path class="eviden-color-primary" d="M1215.54,284.46v71.62H785.81c0-71.62,0-71.62,0-71.62H1215.54z"/>
		<path class="eviden-color-primary" d="M714.19,929.06h-71.62V785.81c71.62,0,71.62,0,71.62,0V929.06z"/>
	</g>
</g>
</svg>
